<svg xmlns="http://www.w3.org/2000/svg" viewBox="0 0 1600 960" role="img" aria-label="investment cover background">
  <defs>
    <linearGradient id="bg" x1="0" y1="0" x2="1" y2="1">
      <stop offset="0%" stop-color="#071A2F" />
      <stop offset="48%" stop-color="#0B314D" />
      <stop offset="100%" stop-color="#0E4E63" />
    </linearGradient>

    <radialGradient id="spotA" cx="0" cy="0" r="1" gradientUnits="userSpaceOnUse" gradientTransform="translate(1280 190) rotate(90) scale(370)">
      <stop offset="0%" stop-color="#67D7B0" stop-opacity="0.36" />
      <stop offset="100%" stop-color="#67D7B0" stop-opacity="0" />
    </radialGradient>
    <radialGradient id="spotB" cx="0" cy="0" r="1" gradientUnits="userSpaceOnUse" gradientTransform="translate(220 820) rotate(90) scale(420)">
      <stop offset="0%" stop-color="#42B983" stop-opacity="0.24" />
      <stop offset="100%" stop-color="#42B983" stop-opacity="0" />
    </radialGradient>

    <pattern id="grid" width="96" height="96" patternUnits="userSpaceOnUse">
      <path d="M96 0H0V96" fill="none" stroke="#9EDDC8" stroke-opacity="0.16" stroke-width="1" />
    </pattern>

    <linearGradient id="trend" x1="0" y1="0" x2="1" y2="0">
      <stop offset="0%" stop-color="#6EE3B8" stop-opacity="0.4" />
      <stop offset="55%" stop-color="#95F2CF" stop-opacity="0.95" />
      <stop offset="100%" stop-color="#B9FFE4" stop-opacity="0.65" />
    </linearGradient>

    <linearGradient id="area" x1="0" y1="0" x2="0" y2="1">
      <stop offset="0%" stop-color="#66DEB6" stop-opacity="0.3" />
      <stop offset="100%" stop-color="#66DEB6" stop-opacity="0" />
    </linearGradient>
  </defs>

  <rect width="1600" height="960" fill="url(#bg)" />
  <rect width="1600" height="960" fill="url(#grid)" />
  <rect width="1600" height="960" fill="url(#spotA)" />
  <rect width="1600" height="960" fill="url(#spotB)" />

  <g fill="none" stroke="#9EDDC8" stroke-opacity="0.1" stroke-width="1.5">
    <path d="M0 220H1600" />
    <path d="M0 360H1600" />
    <path d="M0 500H1600" />
    <path d="M0 640H1600" />
    <path d="M0 780H1600" />
  </g>

  <path
    d="M0 710C170 678 290 628 430 644C578 661 694 594 824 542C956 489 1117 516 1248 451C1366 393 1480 362 1600 338V960H0Z"
    fill="url(#area)"
  />

  <path
    d="M0 710C170 678 290 628 430 644C578 661 694 594 824 542C956 489 1117 516 1248 451C1366 393 1480 362 1600 338"
    fill="none"
    stroke="url(#trend)"
    stroke-width="5"
    stroke-linecap="round"
  />

  <path
    d="M0 760C200 725 360 686 522 700C678 713 803 665 930 622C1068 575 1217 589 1360 546C1450 519 1528 498 1600 478"
    fill="none"
    stroke="#9BEFD0"
    stroke-opacity="0.35"
    stroke-width="2.2"
    stroke-dasharray="5 10"
    stroke-linecap="round"
  />

  <g opacity="0.75">
    <line x1="980" y1="638" x2="980" y2="772" stroke="#A9F5D7" stroke-opacity="0.55" stroke-width="3" />
    <rect x="972" y="690" width="16" height="52" rx="2" fill="#6DDFB5" fill-opacity="0.8" />

    <line x1="1038" y1="604" x2="1038" y2="748" stroke="#A9F5D7" stroke-opacity="0.55" stroke-width="3" />
    <rect x="1030" y="642" width="16" height="66" rx="2" fill="#F48787" fill-opacity="0.72" />

    <line x1="1096" y1="576" x2="1096" y2="728" stroke="#A9F5D7" stroke-opacity="0.55" stroke-width="3" />
    <rect x="1088" y="616" width="16" height="78" rx="2" fill="#74E6BB" fill-opacity="0.82" />

    <line x1="1154" y1="552" x2="1154" y2="704" stroke="#A9F5D7" stroke-opacity="0.55" stroke-width="3" />
    <rect x="1146" y="590" width="16" height="70" rx="2" fill="#72E2B8" fill-opacity="0.82" />

    <line x1="1212" y1="526" x2="1212" y2="676" stroke="#A9F5D7" stroke-opacity="0.55" stroke-width="3" />
    <rect x="1204" y="568" width="16" height="76" rx="2" fill="#F58D8D" fill-opacity="0.7" />

    <line x1="1270" y1="496" x2="1270" y2="648" stroke="#A9F5D7" stroke-opacity="0.55" stroke-width="3" />
    <rect x="1262" y="530" width="16" height="84" rx="2" fill="#7CE9C0" fill-opacity="0.86" />

    <line x1="1328" y1="474" x2="1328" y2="626" stroke="#A9F5D7" stroke-opacity="0.55" stroke-width="3" />
    <rect x="1320" y="512" width="16" height="74" rx="2" fill="#79E6BD" fill-opacity="0.84" />

    <line x1="1386" y1="440" x2="1386" y2="598" stroke="#A9F5D7" stroke-opacity="0.55" stroke-width="3" />
    <rect x="1378" y="484" width="16" height="86" rx="2" fill="#F58D8D" fill-opacity="0.68" />

    <line x1="1444" y1="416" x2="1444" y2="574" stroke="#A9F5D7" stroke-opacity="0.55" stroke-width="3" />
    <rect x="1436" y="450" width="16" height="90" rx="2" fill="#82ECC4" fill-opacity="0.88" />
  </g>

  <g fill="#D8FFF0" opacity="0.34">
    <circle cx="274" cy="232" r="2.5" />
    <circle cx="335" cy="308" r="2" />
    <circle cx="412" cy="268" r="2.5" />
    <circle cx="562" cy="350" r="2.2" />
    <circle cx="812" cy="265" r="2.5" />
    <circle cx="910" cy="208" r="2.1" />
    <circle cx="1044" cy="292" r="2.2" />
    <circle cx="1180" cy="238" r="2.5" />
  </g>
</svg>
