<svg xmlns="http://www.w3.org/2000/svg" viewBox="0 0 64 64" role="img" aria-label="鳄鱼派投资研报">
  <defs>
    <linearGradient id="bg" x1="12" y1="8" x2="54" y2="56" gradientUnits="userSpaceOnUse">
      <stop offset="0" stop-color="#2f9b6b"/>
      <stop offset="1" stop-color="#42b983"/>
    </linearGradient>
  </defs>
  <rect x="2" y="2" width="60" height="60" rx="14" fill="url(#bg)"/>
  <path d="M14.5 32.5C20 21 33 17 46 20c2.8.6 5.2 2.9 5.2 5.8 0 3-2.2 5.5-5.2 5.9l-6.6.9 3.8 2.7c2.6 1.9 1.7 6-1.6 6.6l-7.2 1.3-3 5c-1.3 2.2-4.5 2.4-6.1.4l-6.5-7.8-4-.4c-3-.3-4.1-4.1-1.8-6.1l5-4.1z" fill="#e8fff2" stroke="#d4f3e4" stroke-width="1.5" stroke-linejoin="round"/>
  <circle cx="40" cy="28" r="2" fill="#15553c"/>
  <path d="M46 27.5c1.5-.2 2.8.6 3.4 1.8" stroke="#e8fff2" stroke-width="1.2" stroke-linecap="round" fill="none" opacity=".85"/>
  <path d="M25 34l3 2-3 2z" fill="#c7ead9"/>
  <path d="M20 45c4 2 10 2 14 0" stroke="#d9f6e6" stroke-width="1.4" stroke-linecap="round" fill="none" opacity=".65"/>
  <path d="M14 26c6-7 15-11 23-12" stroke="#d9f6e6" stroke-width="1.2" stroke-linecap="round" fill="none" opacity=".65"/>
</svg>
